<?xml version="1.0" encoding="utf-8"?>
<!-- Generator: Adobe Illustrator 17.1.0, SVG Export Plug-In . SVG Version: 6.00 Build 0)  -->
<!DOCTYPE svg PUBLIC "-//W3C//DTD SVG 1.1//EN" "http://www.w3.org/Graphics/SVG/1.1/DTD/svg11.dtd">
<svg version="1.1" id="Layer_1" xmlns="http://www.w3.org/2000/svg" xmlns:xlink="http://www.w3.org/1999/xlink" x="0px" y="0px"
	 viewBox="0 0 960 560" enable-background="new 0 0 960 560" xml:space="preserve">
<path fill="#FFDCDA" d="M943.9,237c0,5-3.9,9-9,9H788.1c-5,0-9-3.9-9-9l0,0c0-5,3.9-9,9-9h146.9C939.9,228.1,943.9,232,943.9,237
	L943.9,237z"/>
<path fill="#FFDCDA" d="M811.3,140.3c0,5,55.2,9,50.1,9H714.6c-5,0-9-3.9-9-9l0,0c0-5,3.9-9,9-9h93.1
	C812.8,131.3,811.3,135.3,811.3,140.3L811.3,140.3z"/>
<path fill="#FFDCDA" d="M926,315.8c0,5,14,9,9,9H788.1c-5,0-9-3.9-9-9l0,0c0-5,3.9-9,9-9h146.9C939.9,306.9,926,310.8,926,315.8
	L926,315.8z"/>
<path fill="#FFDCDA" d="M908.1,392.8c0,5,14,9,9,9h-129c-5,0-9-3.9-9-9l0,0c0-5,3.9-9,9-9h129C922,383.9,908.1,387.8,908.1,392.8
	L908.1,392.8z"/>
<path fill="#FFDCDA" d="M389.2,379.6v16.8c0,4.5,0.9,8.6,2.5,12.5h21.5c-3.6-3-6.1-7.5-6.1-12.5v-7.5c4.7,1.4,9.7,2.1,14.7,2.1h54.6
	c3.8,0,7.5-0.4,11.1-1.3v6.6c0,5-2.3,9.5-6.1,12.5H503c1.6-3.9,2.5-8.1,2.5-12.5v-14.1c14-9.5,23.3-25.4,23.3-43.5V268
	c0-18.1-9.3-34.2-23.3-43.5v-14.3c0-1.8-0.2-3.6-0.5-5.4h-18.4c0.5,1.6,0.9,3.4,0.9,5.4v6.6c-3.6-0.7-7.3-1.3-11.1-1.3h-54.6
	c-5.2,0-10,0.7-14.7,2.1v-7.5c0-2,0.4-3.8,0.9-5.4h-18.4c-0.4,1.8-0.5,3.6-0.5,5.4V227c-12,9.7-19.7,24.4-19.7,40.8v70.7
	C369.5,355.2,377.2,369.9,389.2,379.6z M505.7,249.6c3.4,5.4,5.4,11.6,5.4,18.4v70.7c0,6.8-2,13.1-5.4,18.4V249.6z M407.1,236.8
	c4.5-2.1,9.5-3.4,14.7-3.4h54.6c3.9,0,7.7,0.7,11.1,2v135.9c-3.6,1.3-7.3,2-11.1,2h-54.6c-5.4,0-10.2-1.3-14.7-3.4L407.1,236.8
	L407.1,236.8z M387.4,267.8c0-3.8,0.7-7.5,1.8-10.9v92.6c-1.1-3.4-1.8-7.2-1.8-10.9V267.8z"/>
<g>
	<path fill="#FFB7AB" d="M960,268.5v-2.1c0-18.8-11.1-35.1-26.9-42.6c9-8.6,14.3-20.6,14.3-34v-2.1c0-26.1-21.1-47.3-47.3-47.3
		h-81.7c-15-29.6-29.4-50.1-71.1-53c-1.3-0.2-7-0.7-15.6-0.7h-83.5c-46,0-53.7,50-81.5,77.9c-1.6,1.6-3.4,3.4-5,5.2
		c-12.7,13.1-23.5,24.4-48.4,24.4H0v17.9l0,0h513.5c32.4,0,47.6-15.9,61.3-29.9c1.6-1.6,3.2-3.4,4.8-5
		c25.3-25.4,34.2-72.5,68.8-72.5H732c8.2,0,13.8,0.5,13.8,0.5h0.4c29,2,40.1,13.3,52.3,35.3h-92.8l0,0c-5,0.2-9,4.1-9,9s3.9,8.8,9,9
		l0,0h194.5c16.1,0,29.4,13.3,29.4,29.4v2.1c0,16.1-12.5,29.4-28.7,29.4h-120c-5,0-9,3.9-9,9c0,5,3.9,9,9,9h120h7.2h4.7
		c16.1,0,29.4,13.3,29.4,29.4v2.1c0,16.1-13.3,29.4-29.4,29.4h-4.7h-7.2h-120c-5,0-9,3.9-9,9s3.9,9,9,9h120
		c16.1,0,28.7,13.3,28.7,29.4v2.1c0,16.1-13.3,29.4-29.4,29.4h-13.6H780.9c-5,0-9,3.9-9,9c0,5,3.9,9,9,9c0,0,101.7,0,106.6,0
		c13.1,0,24.2,12.9,24.2,29.4v2.1c0,16.1-13.3,29.4-29.4,29.4H721.1c-33.1,0-74.3,4.5-93-14.1c-1.8-1.8-3.8-3.9-5.7-5.9
		c-39-39-75.6-35.5-113.7-35.5H0v17.9h508.7c36.9,0,67.7-3,101.2,30.3c2,2,3.8,3.8,5.6,5.6c19.5,19.5,65.2,19.7,105.9,19.7h161.2
		c26.1,0,47.3-21.1,47.3-47.3V424c0-12.2-4.8-23.8-12.9-32.4c17.9-6.6,30.8-24,30.8-44.2v-2.1c0-13.3-5.6-25.4-14.3-34
		C948.9,303.6,960,287.3,960,268.5z"/>
</g>
<g>
	<g>
		<path fill="#FFB7AB" d="M259.7,246h-39.4c-2.5,0-4.5-2-4.5-4.5c0-2.5,2-4.5,4.5-4.5h39.4c2.5,0,4.5,2,4.5,4.5
			C264.2,244,262.2,246,259.7,246z"/>
	</g>
	<g>
		<path fill="#FFB7AB" d="M304.5,267.5h-39.4c-2.5,0-4.5-2-4.5-4.5c0-2.5,2-4.5,4.5-4.5h39.4c2.5,0,4.5,2,4.5,4.5
			C309,265.5,307,267.5,304.5,267.5z"/>
	</g>
	<g>
		<path fill="#FFB7AB" d="M334.9,247.8h-39.4c-2.5,0-4.5-2-4.5-4.5c0-2.5,2-4.5,4.5-4.5h39.4c2.5,0,4.5,2,4.5,4.5
			C339.4,245.8,337.4,247.8,334.9,247.8z"/>
	</g>
	<g>
		<path fill="#FFB7AB" d="M265.1,285.4h-39.4c-2.5,0-4.5-2-4.5-4.5c0-2.5,2-4.5,4.5-4.5h39.4c2.5,0,4.5,2,4.5,4.5
			C269.6,283.4,267.6,285.4,265.1,285.4z"/>
	</g>
	<g>
		<path fill="#FFB7AB" d="M284.8,315.8h-39.4c-2.5,0-4.5-2-4.5-4.5c0-2.5,2-4.5,4.5-4.5h39.4c2.5,0,4.5,2,4.5,4.5
			C289.3,313.9,287.3,315.8,284.8,315.8z"/>
	</g>
	<g>
		<path fill="#FFB7AB" d="M268.7,340.9h-39.4c-2.5,0-4.5-2-4.5-4.5s2-4.5,4.5-4.5h39.4c2.5,0,4.5,2,4.5,4.5S271.2,340.9,268.7,340.9
			z"/>
	</g>
	<g>
		<path fill="#FFB7AB" d="M288.4,367.8H249c-2.5,0-4.5-2-4.5-4.5c0-2.5,2-4.5,4.5-4.5h39.4c2.5,0,4.5,2,4.5,4.5
			C292.8,365.8,290.9,367.8,288.4,367.8z"/>
	</g>
	<g>
		<path fill="#FFB7AB" d="M334.9,299.7h-39.4c-2.5,0-4.5-2-4.5-4.5s2-4.5,4.5-4.5h39.4c2.5,0,4.5,2,4.5,4.5S337.4,299.7,334.9,299.7
			z"/>
	</g>
	<g>
		<path fill="#FFB7AB" d="M363.6,226.3h-39.4c-2.5,0-4.5-2-4.5-4.5c0-2.5,2-4.5,4.5-4.5h39.4c2.5,0,4.5,2,4.5,4.5
			C368.1,224.3,366.1,226.3,363.6,226.3z"/>
	</g>
	<g>
		<path fill="#FFB7AB" d="M374.3,271h-39.4c-2.5,0-4.5-2-4.5-4.5c0-2.5,2-4.5,4.5-4.5h39.4c2.5,0,4.5,2,4.5,4.5
			C378.8,269.1,376.8,271,374.3,271z"/>
	</g>
	<g>
		<path fill="#FFB7AB" d="M544.5,229.9h-39.4c-2.5,0-4.5-2-4.5-4.5c0-2.5,2-4.5,4.5-4.5h39.4c2.5,0,4.5,2,4.5,4.5
			C549,227.9,547,229.9,544.5,229.9z"/>
	</g>
	<g>
		<path fill="#FFB7AB" d="M374.3,349.9h-39.4c-2.5,0-4.5-2-4.5-4.5s2-4.5,4.5-4.5h39.4c2.5,0,4.5,2,4.5,4.5S376.8,349.9,374.3,349.9
			z"/>
	</g>
	<g>
		<path fill="#FFB7AB" d="M358.2,373.1h-39.4c-2.5,0-4.5-2-4.5-4.5s2-4.5,4.5-4.5h39.4c2.5,0,4.5,2,4.5,4.5S360.7,373.1,358.2,373.1
			z"/>
	</g>
	<g>
		<path fill="#FFB7AB" d="M508.7,398.2h-39.4c-2.5,0-4.5-2-4.5-4.5c0-2.5,2-4.5,4.5-4.5h39.4c2.5,0,4.5,2,4.5,4.5
			C513.1,396.2,511.2,398.2,508.7,398.2z"/>
	</g>
	<g>
		<path fill="#FFB7AB" d="M343.9,324.8h-39.4c-2.5,0-4.5-2-4.5-4.5c0-2.5,2-4.5,4.5-4.5h39.4c2.5,0,4.5,2,4.5,4.5
			C348.4,322.8,346.4,324.8,343.9,324.8z"/>
	</g>
	<g>
		<path fill="#FFB7AB" d="M574.9,382.1h-39.4c-2.5,0-4.5-2-4.5-4.5s2-4.5,4.5-4.5h39.4c2.5,0,4.5,2,4.5,4.5S577.4,382.1,574.9,382.1
			z"/>
	</g>
	<g>
		<path fill="#FFB7AB" d="M544.5,362.4h-39.4c-2.5,0-4.5-2-4.5-4.5c0-2.5,2-4.5,4.5-4.5h39.4c2.5,0,4.5,2,4.5,4.5
			C549,360.4,547,362.4,544.5,362.4z"/>
	</g>
	<g>
		<path fill="#FFB7AB" d="M240,389.3h-39.4c-2.5,0-4.5-2-4.5-4.5s2-4.5,4.5-4.5H240c2.5,0,4.5,2,4.5,4.5S242.5,389.3,240,389.3z"/>
	</g>
	<g>
		<path fill="#FFB7AB" d="M324.2,398.2h-39.4c-2.5,0-4.5-2-4.5-4.5c0-2.5,2-4.5,4.5-4.5h39.4c2.5,0,4.5,2,4.5,4.5
			C328.7,396.2,326.7,398.2,324.2,398.2z"/>
	</g>
	<g>
		<path fill="#FFB7AB" d="M180.9,374.9h-39.4c-2.5,0-4.5-2-4.5-4.5s2-4.5,4.5-4.5h39.4c2.5,0,4.5,2,4.5,4.5S183.4,374.9,180.9,374.9
			z"/>
	</g>
	<g>
		<path fill="#FFB7AB" d="M139.7,392.8h-39.4c-2.5,0-4.5-2-4.5-4.5s2-4.5,4.5-4.5h39.4c2.5,0,4.5,2,4.5,4.5S142.2,392.8,139.7,392.8
			z"/>
	</g>
	<g>
		<path fill="#FFB7AB" d="M68.1,321.2H28.7c-2.5,0-4.5-2-4.5-4.5c0-2.5,2-4.5,4.5-4.5h39.4c2.5,0,4.5,2,4.5,4.5
			C72.5,319.2,70.6,321.2,68.1,321.2z"/>
	</g>
	<g>
		<path fill="#FFB7AB" d="M50.1,349.9H10.7c-2.5,0-4.5-2-4.5-4.5s2-4.5,4.5-4.5h39.4c2.5,0,4.5,2,4.5,4.5S52.7,349.9,50.1,349.9z"/>
	</g>
	<g>
		<path fill="#FFB7AB" d="M89.6,373.1H50.1c-2.5,0-4.5-2-4.5-4.5s2-4.5,4.5-4.5h39.4c2.5,0,4.5,2,4.5,4.5S92.1,373.1,89.6,373.1z"/>
	</g>
	<g>
		<path fill="#FFB7AB" d="M130.7,308.7H91.3c-2.5,0-4.5-2-4.5-4.5c0-2.5,2-4.5,4.5-4.5h39.4c2.5,0,4.5,2,4.5,4.5
			C135.2,306.7,133.3,308.7,130.7,308.7z"/>
	</g>
	<g>
		<path fill="#FFB7AB" d="M121.8,349.9H82.4c-2.5,0-4.5-2-4.5-4.5s2-4.5,4.5-4.5h39.4c2.5,0,4.5,2,4.5,4.5S124.3,349.9,121.8,349.9z
			"/>
	</g>
	<g>
		<path fill="#FFB7AB" d="M143.3,331.9h-39.4c-2.5,0-4.5-2-4.5-4.5s2-4.5,4.5-4.5h39.4c2.5,0,4.5,2,4.5,4.5S145.8,331.9,143.3,331.9
			z"/>
	</g>
	<g>
		<path fill="#FFB7AB" d="M51.9,299.7H12.5c-2.5,0-4.5-2-4.5-4.5s2-4.5,4.5-4.5h39.4c2.5,0,4.5,2,4.5,4.5S54.4,299.7,51.9,299.7z"/>
	</g>
	<g>
		<path fill="#FFB7AB" d="M91.3,280H51.9c-2.5,0-4.5-2-4.5-4.5c0-2.5,2-4.5,4.5-4.5h39.4c2.5,0,4.5,2,4.5,4.5
			C95.8,278,93.9,280,91.3,280z"/>
	</g>
	<g>
		<path fill="#FFB7AB" d="M48.4,260.3H9c-2.5,0-4.5-2-4.5-4.5c0-2.5,2-4.5,4.5-4.5h39.4c2.5,0,4.5,2,4.5,4.5
			C52.8,258.3,50.9,260.3,48.4,260.3z"/>
	</g>
	<g>
		<path fill="#FFB7AB" d="M211.3,324.8h-39.4c-2.5,0-4.5-2-4.5-4.5c0-2.5,2-4.5,4.5-4.5h39.4c2.5,0,4.5,2,4.5,4.5
			C215.8,322.8,213.9,324.8,211.3,324.8z"/>
	</g>
	<g>
		<path fill="#FFB7AB" d="M48.4,392.8H9c-2.5,0-4.5-2-4.5-4.5s2-4.5,4.5-4.5h39.4c2.5,0,4.5,2,4.5,4.5S50.9,392.8,48.4,392.8z"/>
	</g>
	<g>
		<path fill="#FFB7AB" d="M200.6,353.4h-39.4c-2.5,0-4.5-2-4.5-4.5s2-4.5,4.5-4.5h39.4c2.5,0,4.5,2,4.5,4.5S203.1,353.4,200.6,353.4
			z"/>
	</g>
	<g>
		<path fill="#FFB7AB" d="M171.9,274.6h-39.4c-2.5,0-4.5-2-4.5-4.5c0-2.5,2-4.5,4.5-4.5h39.4c2.5,0,4.5,2,4.5,4.5
			C176.4,272.7,174.4,274.6,171.9,274.6z"/>
	</g>
	<g>
		<path fill="#FFB7AB" d="M109.3,246H69.9c-2.5,0-4.5-2-4.5-4.5c0-2.5,2-4.5,4.5-4.5h39.4c2.5,0,4.5,2,4.5,4.5
			C113.7,244,111.8,246,109.3,246z"/>
	</g>
	<g>
		<path fill="#FFB7AB" d="M188.1,251.3h-39.4c-2.5,0-4.5-2-4.5-4.5c0-2.5,2-4.5,4.5-4.5h39.4c2.5,0,4.5,2,4.5,4.5
			C192.5,249.4,190.6,251.3,188.1,251.3z"/>
	</g>
	<g>
		<path fill="#FFB7AB" d="M202.4,299.7H163c-2.5,0-4.5-2-4.5-4.5s2-4.5,4.5-4.5h39.4c2.5,0,4.5,2,4.5,4.5S204.9,299.7,202.4,299.7z"
			/>
	</g>
	<g>
		<path fill="#FFB7AB" d="M191.6,226.3h-39.4c-2.5,0-4.5-2-4.5-4.5c0-2.5,2-4.5,4.5-4.5h39.4c2.5,0,4.5,2,4.5,4.5
			C196.1,224.3,194.1,226.3,191.6,226.3z"/>
	</g>
	<g>
		<path fill="#FFB7AB" d="M87.8,226.3H48.4c-2.5,0-4.5-2-4.5-4.5c0-2.5,2-4.5,4.5-4.5h39.4c2.5,0,4.5,2,4.5,4.5
			C92.2,224.3,90.3,226.3,87.8,226.3z"/>
	</g>
	<g>
		<path fill="#FFB7AB" d="M521.2,289h-39.4c-2.5,0-4.5-2-4.5-4.5c0-2.5,2-4.5,4.5-4.5h39.4c2.5,0,4.5,2,4.5,4.5
			C525.7,287,523.7,289,521.2,289z"/>
	</g>
</g>
<path fill="#FFFFFF" d="M482.7,398.2c0,13.8-11.3,25.1-25.1,25.1h-48.4c-13.8,0-25.1-11.3-25.1-25.1V211.9
	c0-13.8,11.3-25.1,25.1-25.1h48.4c13.8,0,25.1,11.3,25.1,25.1V398.2z"/>
<polygon fill="#B5DFF3" points="384.2,380.3 384.2,403.6 482.7,403.6 482.7,385.7 "/>
<path fill="#60B1E0" d="M457.6,432.2h-48.4c-18.8,0-34-15.2-34-34V211.9c0-18.8,15.2-34,34-34h48.4c18.8,0,34,15.2,34,34v186.3
	C491.7,417,476.4,432.2,457.6,432.2z M409.3,195.8c-9,0-16.1,7.2-16.1,16.1v186.3c0,9,7.2,16.1,16.1,16.1h48.4
	c9,0,16.1-7.2,16.1-16.1V211.9c0-9-7.2-16.1-16.1-16.1H409.3z"/>
<path fill="#FFFFFF" d="M504.1,340.5c0,24-19.5,43.3-43.3,43.3h-54.6c-24,0-43.3-19.5-43.3-43.3v-70.7c0-24,19.5-43.3,43.3-43.3
	h54.6c24,0,43.3,19.5,43.3,43.3V340.5z"/>
<path fill="#60B1E0" d="M460.8,392.8h-54.6c-28.8,0-52.3-23.5-52.3-52.3v-70.7c0-28.8,23.5-52.3,52.3-52.3h54.6
	c28.8,0,52.3,23.5,52.3,52.3v70.7C513.1,369.4,489.6,392.8,460.8,392.8z M406,235.2c-19,0-34.4,15.4-34.4,34.4v70.7
	c0,19,15.4,34.4,34.4,34.4h54.6c19,0,34.4-15.4,34.4-34.4v-70.7c0-19-15.4-34.4-34.4-34.4H406z"/>
<g>
	<path fill="#60B1E0" d="M406.1,360.6c-11.1,0-20.1-9-20.1-20.1v-70.7c0-11.1,9-20.1,20.1-20.1h54.6c11.1,0,20.1,9,20.1,20.1v70.7
		c0,11.1-9,20.1-20.1,20.1H406.1z"/>
</g>
<g>
	<path fill="#FFB7AB" d="M908.8,369.2c-1.6,0-3.2-0.9-3.9-2.5c-1.1-2.1-0.4-4.8,2-6.1c2.9-1.4,5.9-6.8,5.9-13.8s-2.9-12-5.6-13.6
		c-2.1-1.3-2.7-4.1-1.4-6.1c1.3-2.1,4.1-2.7,6.1-1.4c5.9,3.8,9.7,12,9.7,21.3c0,9.9-4.1,18.4-10.7,21.9
		C910.2,369,909.5,369.2,908.8,369.2z"/>
</g>
<g>
	<path fill="#FFB7AB" d="M889.1,446.2c-1.6,0-3.2-0.9-3.9-2.5c-1.1-2.1-0.4-4.8,2-6.1c2.9-1.4,5.9-6.8,5.9-13.8c0-7-2.9-12-5.6-13.6
		c-2.1-1.3-2.7-4.1-1.4-6.1c1.3-2.1,4.1-2.7,6.1-1.4c5.9,3.8,9.7,12,9.7,21.3c0,9.9-4.1,18.4-10.7,21.9
		C890.5,446,889.8,446.2,889.1,446.2z"/>
</g>
<g>
	<path fill="#FFB7AB" d="M919.5,288.6c-1.6,0-3.2-0.9-3.9-2.5c-1.1-2.1-0.4-4.8,2-6.1c2.9-1.4,5.9-6.8,5.9-13.8s-2.9-12-5.6-13.6
		c-2.1-1.3-2.7-4.1-1.4-6.1c1.3-2.1,4.1-2.7,6.1-1.4c5.9,3.8,9.7,12,9.7,21.3c0,9.9-4.1,18.4-10.7,21.9
		C921,288.4,920.2,288.6,919.5,288.6z"/>
</g>
<g>
	<path fill="#FFB7AB" d="M907,209.8c-1.6,0-3.2-0.9-3.9-2.5c-1.1-2.1-0.4-4.8,2-6.1c2.9-1.4,5.9-6.8,5.9-13.8c0-7-2.9-12-5.6-13.6
		c-2.1-1.3-2.7-4.1-1.4-6.1c1.3-2.1,4.1-2.7,6.1-1.4c5.9,3.8,9.7,12,9.7,21.3c0,9.9-4.1,18.4-10.7,21.9
		C908.4,209.6,907.7,209.8,907,209.8z"/>
</g>
</svg>
