<?xml version="1.0" encoding="utf-8"?>
<!-- Generator: Adobe Illustrator 17.1.0, SVG Export Plug-In . SVG Version: 6.00 Build 0)  -->
<!DOCTYPE svg PUBLIC "-//W3C//DTD SVG 1.1//EN" "http://www.w3.org/Graphics/SVG/1.1/DTD/svg11.dtd">
<svg version="1.1" id="Layer_1" xmlns="http://www.w3.org/2000/svg" xmlns:xlink="http://www.w3.org/1999/xlink" x="0px" y="0px"
	 viewBox="0 0 940.7 445.9" enable-background="new 0 0 940.7 445.9" xml:space="preserve">
<g>
	<g>
		<path fill="#01466A" d="M45.7,421.2c1.2-2.6,2.6-4.8,4.3-6.2c1.1-0.9,3-1.5,5-1.5c2.3,0,4.4,0.7,6.1,2.4c1.6,1.6,2.3,3.6,2.3,6.6
			c0,3.5-1.8,9.8-7.6,15.4c-5.6,5.5-12.2,8-22.9,8c-10,0-17.7-3.3-23.7-9.4c-8.8-8.8-9.1-18.9-9.1-36c0-17,0.3-27.1,9.1-36
			c6-6.1,13.8-9.4,23.7-9.4c10.7,0,17.3,2.6,22.9,8c5.8,5.6,7.6,11.9,7.6,15.4c0,3.1-0.7,5-2.3,6.6c-1.7,1.7-3.8,2.4-6.1,2.4
			c-2,0-3.9-0.6-5-1.5c-1.8-1.4-3.1-3.6-4.3-6.2c-2.8-6.3-7-9.2-13.2-9.2c-4.6,0-8,1.9-10.6,4.8c-3.7,4.3-4.4,9.1-4.4,25.1
			c0,15.9,0.7,20.8,4.4,25.1c2.6,2.9,6,4.8,10.6,4.8C38.7,430.4,42.9,427.5,45.7,421.2z"/>
		<path fill="#01466A" d="M86,436.5c-8.8-8.8-9.1-18.9-9.1-36c0-17,0.3-27.1,9.1-36c6-6.1,13.6-9.4,23.9-9.4s17.9,3.3,23.9,9.4
			c8.8,8.8,9.1,18.9,9.1,36c0,17-0.3,27.1-9.1,36c-6,6.1-13.6,9.4-23.9,9.4S92,442.6,86,436.5z M98.7,375.5c-3.3,3.8-4.3,8-4.3,25.1
			c0,17,1,21.2,4.3,25c2.5,2.8,6.5,4.8,11.2,4.8s8.7-2,11.2-4.8c3.3-3.8,4.3-8,4.3-25c0-17-1-21.3-4.3-25.1
			c-2.5-2.9-6.5-4.8-11.2-4.8S101.3,372.6,98.7,375.5z"/>
		<path fill="#01466A" d="M192.7,422.1l-14.5-28.6v40.4c0,4.1-0.1,5.5-1.2,7.6c-1.3,2.4-4.1,4.1-7.6,4.1s-6.3-1.7-7.6-4.1
			c-1.1-2.1-1.2-3.6-1.2-7.6v-67.6c0-3.8,0.5-6.3,2.6-8.5c1.6-1.6,3.5-2.4,5.9-2.4c2.1,0,3.6,0.4,5.2,1.4c1.8,1.1,3.3,3.3,4.4,5.4
			l22.3,42.5l22.3-42.5c1.1-2.1,2.7-4.3,4.4-5.4c1.6-1.1,3.1-1.4,5.2-1.4c2.4,0,4.3,0.8,5.9,2.4c2.1,2.1,2.6,4.6,2.6,8.5v67.6
			c0,4.1-0.1,5.5-1.2,7.6c-1.3,2.4-4.1,4.1-7.6,4.1s-6.3-1.7-7.6-4.1c-1.1-2.1-1.2-3.6-1.2-7.6v-40.4l-14.5,28.6
			c-2.2,4.3-4.3,6.1-8.4,6.1S194.9,426.5,192.7,422.1z"/>
		<path fill="#01466A" d="M294.4,422.1l-14.5-28.6v40.4c0,4.1-0.1,5.5-1.2,7.6c-1.3,2.4-4.1,4.1-7.6,4.1s-6.3-1.7-7.6-4.1
			c-1.1-2.1-1.2-3.6-1.2-7.6v-67.6c0-3.8,0.5-6.3,2.6-8.5c1.6-1.6,3.5-2.4,5.9-2.4c2.1,0,3.6,0.4,5.2,1.4c1.8,1.1,3.3,3.3,4.4,5.4
			l22.3,42.5l22.3-42.5c1.1-2.1,2.7-4.3,4.4-5.4c1.6-1.1,3.1-1.4,5.2-1.4c2.4,0,4.3,0.8,5.9,2.4c2.1,2.1,2.6,4.6,2.6,8.5v67.6
			c0,4.1-0.1,5.5-1.2,7.6c-1.3,2.4-4.1,4.1-7.6,4.1s-6.3-1.7-7.6-4.1c-1.1-2.1-1.2-3.6-1.2-7.6v-40.4l-14.5,28.6
			c-2.2,4.3-4.3,6.1-8.4,6.1S296.6,426.5,294.4,422.1z"/>
		<path fill="#01466A" d="M362.5,414.6v-47.4c0-4.1,0.1-5.5,1.2-7.6c1.3-2.4,4.1-4.1,7.6-4.1c3.4,0,6.3,1.7,7.6,4.1
			c1.1,2.1,1.2,3.6,1.2,7.6V414c0,10.3,5.9,16.4,15.3,16.4c9.4,0,15.3-6.1,15.3-16.4v-46.7c0-4.1,0.1-5.5,1.2-7.6
			c1.3-2.4,4.1-4.1,7.6-4.1c3.4,0,6.3,1.7,7.6,4.1c1.1,2.1,1.2,3.6,1.2,7.6v47.4c0,18.9-14.5,31.3-32.8,31.3
			C377,445.9,362.5,433.5,362.5,414.6z"/>
		<path fill="#01466A" d="M515.9,434.8c0,3.6-0.4,6.2-2.4,8.2c-1.8,1.8-3.9,2.7-6.6,2.7c-4,0-6.5-2.5-10.2-8l-31.8-46.9v43.1
			c0,4.1-0.1,5.5-1.2,7.6c-1.3,2.4-4.1,4.1-7.6,4.1c-3.4,0-6.3-1.7-7.6-4.1c-1.1-2.1-1.2-3.6-1.2-7.6v-67.5c0-3.6,0.4-6.2,2.4-8.2
			c1.8-1.8,3.9-2.7,6.6-2.7c4.1,0,6.5,2.5,10.3,8l31.7,46.9v-43.1c0-4.1,0.1-5.5,1.2-7.6c1.3-2.4,4.1-4.1,7.6-4.1
			c3.4,0,6.3,1.7,7.6,4.1c1.1,2.1,1.2,3.6,1.2,7.6V434.8z"/>
		<path fill="#01466A" d="M554.1,433.9c0,4.1-0.1,5.5-1.2,7.6c-1.3,2.4-4.1,4.1-7.6,4.1c-3.4,0-6.3-1.7-7.6-4.1
			c-1.1-2.1-1.2-3.6-1.2-7.6v-66.7c0-4.1,0.1-5.5,1.2-7.6c1.3-2.4,4.1-4.1,7.6-4.1c3.4,0,6.3,1.7,7.6,4.1c1.1,2.1,1.2,3.6,1.2,7.6
			V433.9z"/>
		<path fill="#01466A" d="M585.4,445.2c-2.6,0-5.8,0-8.2-2.4c-2.4-2.4-2.4-5.6-2.4-8.2v-67.9c0-2.6,0-5.8,2.4-8.2
			c2.4-2.4,5.6-2.4,8.2-2.4h25.4c17.5,0,27.7,9.8,27.7,25.1c0,9.9-6.6,16.3-11.1,18.4c5.4,2.5,12.4,8.1,12.4,20
			c0,16.7-11.5,25.7-27.4,25.7H585.4z M592.3,371.5v20.5h17.1c7.4,0,11.5-4.1,11.5-10.3c0-6.1-4.1-10.3-11.5-10.3H592.3z
			 M610.5,429.7c7.9,0,11.7-5,11.7-11s-3.8-10.9-11.7-10.9h-18.2v21.9H610.5z"/>
		<path fill="#01466A" d="M722.2,431.8c1.7,4.5,2.7,7.8-0.4,11.2c-1.6,1.8-3.9,2.7-6.3,2.7c-1.9,0-3.5-0.6-4.8-1.6
			c-1.5-1.3-2.2-2.6-3.7-6.6l-2.9-8.1h-34.8l-2.9,8.1c-1.5,4-2.2,5.3-3.7,6.6c-1.3,1.1-2.9,1.6-4.8,1.6c-2.3,0-4.6-0.9-6.3-2.7
			c-3.1-3.4-2.1-6.7-0.4-11.2l25.8-68.3c1.3-3.3,2.2-4.7,3.6-5.9c1.7-1.5,3.6-2.1,6.3-2.1c2.7,0,4.6,0.6,6.3,2.1
			c1.4,1.2,2.3,2.6,3.6,5.9L722.2,431.8z M674.6,414.7h23.9l-12-32.4L674.6,414.7z"/>
		<path fill="#01466A" d="M762.5,371.5v62.4c0,4.1-0.1,5.5-1.2,7.6c-1.3,2.4-4.1,4.1-7.6,4.1c-3.4,0-6.3-1.7-7.6-4.1
			c-1.1-2.1-1.2-3.6-1.2-7.6v-62.4h-13.2c-3.7,0-5.1-0.1-6.8-1c-2.2-1.1-3.7-3.7-3.7-6.8c0-3.1,1.5-5.6,3.7-6.8c1.7-0.9,3.1-1,6.8-1
			h44c3.7,0,5.1,0.1,6.8,1c2.2,1.1,3.7,3.7,3.7,6.8c0,3.1-1.5,5.6-3.7,6.8c-1.7,0.9-3.1,1-6.8,1H762.5z"/>
		<path fill="#01466A" d="M802,436.5c-8.8-8.8-9.1-18.9-9.1-36c0-17,0.3-27.1,9.1-36c6-6.1,13.6-9.4,23.9-9.4
			c10.3,0,17.9,3.3,23.9,9.4c8.8,8.8,9.1,18.9,9.1,36c0,17-0.3,27.1-9.1,36c-6,6.1-13.6,9.4-23.9,9.4
			C815.6,445.9,808,442.6,802,436.5z M814.7,375.5c-3.3,3.8-4.3,8-4.3,25.1c0,17,1,21.2,4.3,25c2.5,2.8,6.5,4.8,11.2,4.8
			c4.8,0,8.7-2,11.2-4.8c3.3-3.8,4.3-8,4.3-25c0-17-1-21.3-4.3-25.1c-2.5-2.9-6.5-4.8-11.2-4.8C821.2,370.8,817.2,372.6,814.7,375.5
			z"/>
		<path fill="#01466A" d="M894.2,433.9c0,4.1-0.1,5.5-1.2,7.6c-1.3,2.4-4.1,4.1-7.6,4.1c-3.4,0-6.3-1.7-7.6-4.1
			c-1.1-2.1-1.2-3.6-1.2-7.6v-67.3c0-2.6,0-5.8,2.4-8.2c2.4-2.4,5.6-2.4,8.2-2.4h24.4c18.2,0,29,12.3,29,27.3
			c0,10.7-5.9,19.4-16.2,23.6l13.3,23.2c2,3.5,2.7,4.9,2.8,7c0.1,2.8-1.4,5.6-4.3,7.3c-1.5,0.9-3.1,1.4-4.6,1.4
			c-4.7,0-6.5-3.2-8.8-7.1l-16.5-28.9h-12.2V433.9z M910.7,395c7.6,0,12.5-4.8,12.5-11.7c0-7-4.9-11.8-12.5-11.8h-16.5V395H910.7z"
			/>
	</g>
	<g>
		<g>
			<path fill="#FFFFFF" d="M417.4,195c0,9.8,12.1,17.9,27,17.9h52c14.8,0,27-8,27-17.9V62.4c0-9.8-12.1-17.9-27-17.9h-52
				c-14.8,0-27,8-27,17.9V195z"/>
		</g>
		<g>
			<polygon fill="#60B1E0" points="523.3,162.8 523.3,202.1 469.9,209.9 417.4,202.1 417.4,168.6 			"/>
		</g>
		<g>
			<path fill="#01466A" d="M407.8,43.4c0-20.2,16.4-36.6,36.6-36.6h52c20.2,0,36.6,16.4,36.6,36.6v189.1c0,20.2-16.4,36.6-36.6,36.6
				h-52c-20.2,0-36.6-16.4-36.6-36.6V43.4z M427,232.5c0,9.6,7.7,17.3,17.3,17.3h52c9.6,0,17.3-7.7,17.3-17.3V43.4
				c0-9.6-7.7-17.3-17.3-17.3h-52c-9.6,0-17.3,7.7-17.3,17.3V232.5z"/>
		</g>
		<g>
			<path fill="#FFFFFF" d="M432.3,9.6c-25.8,0-46.6,21-46.6,46.6V115c0,25.8,21,46.6,46.6,46.6h76.1c25.8,0,46.6-21,46.6-46.6V56.2
				c0-25.8-21-46.6-46.6-46.6H432.3z"/>
		</g>
		<g>
			<path fill="#01466A" d="M508.4,0c31.2,0,56.2,25.2,56.2,56.2V115c0,31.2-25.2,56.2-56.2,56.2h-76.1c-31.2,0-56.2-25.2-56.2-56.2
				V56.2C376.1,25,401.3,0,432.3,0L508.4,0z M432.1,19.3c-20.4,0-37,16.6-37,37V115c0,20.4,16.6,37,37,37h76.1c20.4,0,37-16.6,37-37
				V56.2c0-20.4-16.6-37-37-37H432.1z"/>
		</g>
		<g>
			<g>
				<path fill="#01466A" d="M432.3,34.7c-11.9,0-21.6,9.6-21.6,21.6V115c0,11.9,9.6,21.6,21.6,21.6h76.1c11.9,0,21.6-9.6,21.6-21.6
					V56.2c0-11.9-9.6-21.6-21.6-21.6H432.3z"/>
			</g>
		</g>
		<g>
			<g>
				<path fill="#60B1E0" d="M399.9,226.3c0-38.7,31.4-10,70.1-10s70.1-28.7,70.1,10s-31.4,80.2-70.1,80.2S399.9,265,399.9,226.3z"/>
			</g>
			<g>
				<path fill="#01466A" d="M388.2,226.3c0-8.4,1.1-20.3,10.1-27.2c10.4-7.9,24-4.2,38.4-0.3c10.1,2.7,21.5,5.8,33.2,5.8
					c11.7,0,23.1-3.1,33.2-5.8c14.4-3.9,28.1-7.6,38.4,0.3c9.1,7,10.1,18.9,10.1,27.2c0,43.3-35,91.8-81.8,91.8
					S388.2,269.6,388.2,226.3z M412.6,217.7c-0.4,0.8-1.1,3.2-1.1,8.6c0,16.1,6.7,33.8,17.8,47.1c11.5,13.8,25.9,21.4,40.6,21.4
					c14.7,0,29.1-7.6,40.6-21.4c11.2-13.4,17.8-31,17.8-47.1c0-5.4-0.7-7.7-1.1-8.6c-3.1-0.5-12.1,1.9-18.1,3.6
					c-10.9,3-24.5,6.7-39.3,6.7s-28.4-3.7-39.3-6.7C424.7,219.6,415.7,217.2,412.6,217.7z"/>
			</g>
		</g>
		<g>
			<g>
				<path fill="#FFFFFF" d="M470,306.5c38.7,0,70.1-41.4,70.1-80.2c0-4.1-0.4-7.4-1-10.1c-12.6,3-30.4,15.1-52,18.5
					c-38.3,6-73.8-17.5-67.7,20.8c2.4,15.3,9.8,30.2,20.3,42.2C448.8,303.2,459.1,306.5,470,306.5z"/>
			</g>
		</g>
		<g>
			<g>
				<path fill="#01466A" d="M388.2,226.3c0-8.4,1.1-20.3,10.1-27.2c10.4-7.9,24-4.2,38.4-0.3c10.1,2.7,21.5,5.8,33.2,5.8
					c11.7,0,23.1-3.1,33.2-5.8c14.4-3.9,28.1-7.6,38.4,0.3c9.1,7,10.1,18.9,10.1,27.2c0,43.3-35,91.8-81.8,91.8
					S388.2,269.6,388.2,226.3z M412.6,217.7c-0.4,0.8-1.1,3.2-1.1,8.6c0,16.1,6.7,33.8,17.8,47.1c11.5,13.8,25.9,21.4,40.6,21.4
					c14.7,0,29.1-7.6,40.6-21.4c11.2-13.4,17.8-31,17.8-47.1c0-5.4-0.7-7.7-1.1-8.6c-3.1-0.5-12.1,1.9-18.1,3.6
					c-10.9,3-24.5,6.7-39.3,6.7s-28.4-3.7-39.3-6.7C424.7,219.6,415.7,217.2,412.6,217.7z"/>
			</g>
		</g>
		<g>
			<path fill="#FFFFFF" d="M467.3,84.4c0-2.8,2.2-5,5-5h36c2.8,0,5,2.2,5,5s-2.2,5-5,5h-36C469.5,89.4,467.3,87.2,467.3,84.4z"/>
		</g>
		<g>
			<path fill="#FFFFFF" d="M446.5,102.6c0-1.3,0.5-2.6,1.5-3.5l18.5-18.5c2-2,5.1-2,7.1,0c2,2,2,5.1,0,7.1l-18.5,18.5
				c-2,2-5.1,2-7.1,0C447,105.2,446.5,103.9,446.5,102.6z"/>
		</g>
	</g>
</g>
</svg>
