<?xml version="1.0" encoding="utf-8"?>
<!-- Generator: Adobe Illustrator 17.1.0, SVG Export Plug-In . SVG Version: 6.00 Build 0)  -->
<!DOCTYPE svg PUBLIC "-//W3C//DTD SVG 1.1//EN" "http://www.w3.org/Graphics/SVG/1.1/DTD/svg11.dtd">
<svg version="1.1" id="Layer_1" xmlns="http://www.w3.org/2000/svg" xmlns:xlink="http://www.w3.org/1999/xlink" x="0px" y="0px"
	 viewBox="0 0 960 560" enable-background="new 0 0 960 560" xml:space="preserve">
<path fill="#FFDCDA" d="M180.9,237c0-5-3.9-9-9-9H25.1c-5,0-9,3.9-9,9l0,0c0,5,3.9,9,9,9h146.9C177,246,180.9,242,180.9,237
	L180.9,237z"/>
<path fill="#FFDCDA" d="M148.7,140.3c0,5-55.2,9-50.1,9h146.9c5,0,9-3.9,9-9l0,0c0-5-3.9-9-9-9h-93.1
	C147.2,131.3,148.7,135.3,148.7,140.3L148.7,140.3z"/>
<path fill="#FFDCDA" d="M180.9,315.8c0-5-3.9-9-9-9H43c-5,0-9,3.9-9,9l0,0c0,5,3.9,9,9,9h129C177,324.8,180.9,320.8,180.9,315.8
	L180.9,315.8z"/>
<path fill="#FFE0DC" d="M180.9,392.8c0-5-3.9-9-9-9h-111c-5,0-9,3.9-9,9l0,0c0,5,3.9,9,9,9h111C177,401.8,180.9,397.9,180.9,392.8
	L180.9,392.8z"/>
<path fill="#FFDCDA" d="M460.9,271.4v70.7c0,16.5,7.2,31.3,19.7,40.8v16.8c0,1.8,0.2,3.6,0.5,5.4h18.4c-0.5-1.6-0.9-3.4-0.9-5.4
	v-7.5c5.4,1.4,9.7,2.1,14.7,2.1H568c3.8,0,7.5-0.4,11.1-1.3v6.6c0,2-0.4,3.6-0.9,5.4h18.4c0.4-1.8,0.5-3.6,0.5-5.4v-14.1
	c14.3-9.5,23.3-25.4,23.3-43.5v-70.7c0-18.1-9.3-34.2-23.3-43.5v-14.1c0-4.5-0.9-9-2.5-12.5h-21.5c3.6,3.6,6.1,7.5,6.1,12.5v6.6
	c-3.6-0.7-7.3-1.3-11.1-1.3h-54.6c-5.2,0-10,0.7-14.7,2.1v-7.5c0-5,2.3-9,6.1-12.5h-21.5c-1.6,3.6-2.5,8.1-2.5,12.5v16.8
	C468.6,240.2,460.9,254.9,460.9,271.4z M597,253.1c3.6,5.4,5.4,11.6,5.4,18.4v70.7c0,6.8-1.8,13.1-5.4,18.4V253.1z M498.5,240.4
	c5.4-2.1,9.5-3.4,14.7-3.4h54.6c3.9,0,7.7,0.7,11.1,2v135.9c-3.6,1.3-7.3,2-11.1,2h-54.6c-5.4,0-9.3-1.3-14.7-3.4V240.4z
	 M478.8,271.4c0-3.8,0.7-7.5,1.8-10.9v92.6c-1.1-3.4-1.8-7.2-1.8-10.9V271.4z"/>
<g>
	<path fill="#FFB7AB" d="M0,268.5v-2.1c0-18.8,11.1-35.1,26.9-42.6c-9-8.6-14.3-20.6-14.3-34v-2.1c0-26.1,21.1-47.3,47.3-47.3h81.7
		c15-28.7,29.4-50.1,71.1-53c1.3-0.2,7-0.7,15.6-0.7h83.5c46,0,53.7,50,81.5,77.9c1.6,1.6,3.4,3.4,5,5.2
		c12.7,13.1,23.5,24.4,48.4,24.4H960v17.9l0,0H446.5c-32.4,0-47.6-15.9-61.3-29.9c-1.6-1.6-3.2-3.4-4.8-5
		c-25.3-25.4-34.2-72.5-68.8-72.5H228c-8.2,0-13.8,0.5-13.8,0.5h-0.4c-29,2.1-40.1,13.8-52.1,35.3h92.6l0,0c5.4,0.2,9,4.1,9,9
		s-3.6,8.8-9,9l0,0H59.8c-16.1,0-29.4,13.3-29.4,29.4v2.1c0,16.1,12.5,29.4,28.7,29.4h120c5,0,9,3.9,9,9c0,5-3.9,9-9,9h-120h-7.2
		h-4.7c-16.1,0-29.4,13.3-29.4,29.4v2.1c0,16.1,13.3,29.4,29.4,29.4h4.7h7.2h120c5,0,9,3.9,9,9s-3.9,9-9,9h-120
		c-16.1,0-28.7,13.3-28.7,29.4v2.1c0,16.1,13.3,29.4,29.4,29.4h13.6h105.7c5,0,9,3.9,9,9c0,5-3.9,9-9,9c0,0-101.7,0-106.6,0
		c-13.1,0-24.2,12.9-24.2,29.4v2.1c0,16.1,13.3,29.4,29.4,29.4h161.2c33.1,0,74.3,4.5,93-14.1c1.8-1.8,3.8-3.9,5.7-5.9
		c39-39,75.6-35.5,113.7-35.5H960v17.9H451.3c-36.9,0-67.7-3-101.2,30.3c-2,2-3.8,3.8-5.6,5.6c-19.5,19.5-65.2,19.7-105.9,19.7H77.6
		c-26,0-47.1-21.1-47.1-47.3V424c0-12.2,4.8-23.8,12.9-32.4c-17.9-6.6-30.8-24-30.8-44.2v-2.1c0-13.3,5.6-25.4,14.3-34
		C11.1,303.6,0,287.3,0,268.5z"/>
</g>
<g>
	<g>
		<path fill="#FFB7AB" d="M700.3,246h39.4c2.5,0,4.5-2,4.5-4.5c0-2.5-2-4.5-4.5-4.5h-39.4c-2.5,0-4.5,2-4.5,4.5
			C695.8,244,697.8,246,700.3,246z"/>
	</g>
	<g>
		<path fill="#FFB7AB" d="M655.5,267.5h39.4c2.5,0,4.5-2,4.5-4.5c0-2.5-2-4.5-4.5-4.5h-39.4c-2.5,0-4.5,2-4.5,4.5
			C651,265.5,653,267.5,655.5,267.5z"/>
	</g>
	<g>
		<path fill="#FFB7AB" d="M625.1,247.8h39.4c2.5,0,4.5-2,4.5-4.5c0-2.5-2-4.5-4.5-4.5h-39.4c-2.5,0-4.5,2-4.5,4.5
			C620.6,245.8,622.6,247.8,625.1,247.8z"/>
	</g>
	<g>
		<path fill="#FFB7AB" d="M694.9,285.4h39.4c2.5,0,4.5-2,4.5-4.5c0-2.5-2-4.5-4.5-4.5h-39.4c-2.5,0-4.5,2-4.5,4.5
			C690.4,283.4,692.4,285.4,694.9,285.4z"/>
	</g>
	<g>
		<path fill="#FFB7AB" d="M675.2,315.8h39.4c2.5,0,4.5-2,4.5-4.5c0-2.5-2-4.5-4.5-4.5h-39.4c-2.5,0-4.5,2-4.5,4.5
			C670.7,313.9,672.7,315.8,675.2,315.8z"/>
	</g>
	<g>
		<path fill="#FFB7AB" d="M691.3,340.9h39.4c2.5,0,4.5-2,4.5-4.5s-2-4.5-4.5-4.5h-39.4c-2.5,0-4.5,2-4.5,4.5
			S688.8,340.9,691.3,340.9z"/>
	</g>
	<g>
		<path fill="#FFB7AB" d="M671.6,367.8H711c2.5,0,4.5-2,4.5-4.5c0-2.5-2-4.5-4.5-4.5h-39.4c-2.5,0-4.5,2-4.5,4.5
			C667.2,365.8,669.1,367.8,671.6,367.8z"/>
	</g>
	<g>
		<path fill="#FFB7AB" d="M625.1,299.7h39.4c2.5,0,4.5-2,4.5-4.5s-2-4.5-4.5-4.5h-39.4c-2.5,0-4.5,2-4.5,4.5
			S622.6,299.7,625.1,299.7z"/>
	</g>
	<g>
		<path fill="#FFB7AB" d="M596.4,226.3h39.4c2.5,0,4.5-2,4.5-4.5c0-2.5-2-4.5-4.5-4.5h-39.4c-2.5,0-4.5,2-4.5,4.5
			C591.9,224.3,593.9,226.3,596.4,226.3z"/>
	</g>
	<g>
		<path fill="#FFB7AB" d="M585.7,271h39.4c2.5,0,4.5-2,4.5-4.5c0-2.5-2-4.5-4.5-4.5h-39.4c-2.5,0-4.5,2-4.5,4.5
			C581.2,269.1,583.2,271,585.7,271z"/>
	</g>
	<g>
		<path fill="#FFB7AB" d="M415.5,229.9h39.4c2.5,0,4.5-2,4.5-4.5c0-2.5-2-4.5-4.5-4.5h-39.4c-2.5,0-4.5,2-4.5,4.5
			C411,227.9,413,229.9,415.5,229.9z"/>
	</g>
	<g>
		<path fill="#FFB7AB" d="M585.7,349.9h39.4c2.5,0,4.5-2,4.5-4.5s-2-4.5-4.5-4.5h-39.4c-2.5,0-4.5,2-4.5,4.5
			S583.2,349.9,585.7,349.9z"/>
	</g>
	<g>
		<path fill="#FFB7AB" d="M601.8,373.1h39.4c2.5,0,4.5-2,4.5-4.5s-2-4.5-4.5-4.5h-39.4c-2.5,0-4.5,2-4.5,4.5
			S599.3,373.1,601.8,373.1z"/>
	</g>
	<g>
		<path fill="#FFB7AB" d="M451.3,398.2h39.4c2.5,0,4.5-2,4.5-4.5c0-2.5-2-4.5-4.5-4.5h-39.4c-2.5,0-4.5,2-4.5,4.5
			C446.9,396.2,448.8,398.2,451.3,398.2z"/>
	</g>
	<g>
		<path fill="#FFB7AB" d="M616.1,324.8h39.4c2.5,0,4.5-2,4.5-4.5c0-2.5-2-4.5-4.5-4.5h-39.4c-2.5,0-4.5,2-4.5,4.5
			C611.6,322.8,613.6,324.8,616.1,324.8z"/>
	</g>
	<g>
		<path fill="#FFB7AB" d="M385.1,382.1h39.4c2.5,0,4.5-2,4.5-4.5s-2-4.5-4.5-4.5h-39.4c-2.5,0-4.5,2-4.5,4.5
			S382.6,382.1,385.1,382.1z"/>
	</g>
	<g>
		<path fill="#FFB7AB" d="M415.5,362.4h39.4c2.5,0,4.5-2,4.5-4.5c0-2.5-2-4.5-4.5-4.5h-39.4c-2.5,0-4.5,2-4.5,4.5
			C411,360.4,413,362.4,415.5,362.4z"/>
	</g>
	<g>
		<path fill="#FFB7AB" d="M720,389.3h39.4c2.5,0,4.5-2,4.5-4.5s-2-4.5-4.5-4.5H720c-2.5,0-4.5,2-4.5,4.5S717.5,389.3,720,389.3z"/>
	</g>
	<g>
		<path fill="#FFB7AB" d="M635.8,398.2h39.4c2.5,0,4.5-2,4.5-4.5c0-2.5-2-4.5-4.5-4.5h-39.4c-2.5,0-4.5,2-4.5,4.5
			C631.3,396.2,633.3,398.2,635.8,398.2z"/>
	</g>
	<g>
		<path fill="#FFB7AB" d="M779.1,374.9h39.4c2.5,0,4.5-2,4.5-4.5s-2-4.5-4.5-4.5h-39.4c-2.5,0-4.5,2-4.5,4.5
			S776.6,374.9,779.1,374.9z"/>
	</g>
	<g>
		<path fill="#FFB7AB" d="M820.3,392.8h39.4c2.5,0,4.5-2,4.5-4.5s-2-4.5-4.5-4.5h-39.4c-2.5,0-4.5,2-4.5,4.5
			S817.8,392.8,820.3,392.8z"/>
	</g>
	<g>
		<path fill="#FFB7AB" d="M891.9,321.2h39.4c2.5,0,4.5-2,4.5-4.5c0-2.5-2-4.5-4.5-4.5h-39.4c-2.5,0-4.5,2-4.5,4.5
			C887.5,319.2,889.4,321.2,891.9,321.2z"/>
	</g>
	<g>
		<path fill="#FFB7AB" d="M909.9,349.9h39.4c2.5,0,4.5-2,4.5-4.5s-2-4.5-4.5-4.5h-39.4c-2.5,0-4.5,2-4.5,4.5
			S907.3,349.9,909.9,349.9z"/>
	</g>
	<g>
		<path fill="#FFB7AB" d="M870.4,373.1h39.4c2.5,0,4.5-2,4.5-4.5s-2-4.5-4.5-4.5h-39.4c-2.5,0-4.5,2-4.5,4.5
			S867.9,373.1,870.4,373.1z"/>
	</g>
	<g>
		<path fill="#FFB7AB" d="M829.3,308.7h39.4c2.5,0,4.5-2,4.5-4.5c0-2.5-2-4.5-4.5-4.5h-39.4c-2.5,0-4.5,2-4.5,4.5
			C824.8,306.7,826.7,308.7,829.3,308.7z"/>
	</g>
	<g>
		<path fill="#FFB7AB" d="M838.2,349.9h39.4c2.5,0,4.5-2,4.5-4.5s-2-4.5-4.5-4.5h-39.4c-2.5,0-4.5,2-4.5,4.5
			S835.7,349.9,838.2,349.9z"/>
	</g>
	<g>
		<path fill="#FFB7AB" d="M816.7,331.9h39.4c2.5,0,4.5-2,4.5-4.5s-2-4.5-4.5-4.5h-39.4c-2.5,0-4.5,2-4.5,4.5
			S814.2,331.9,816.7,331.9z"/>
	</g>
	<g>
		<path fill="#FFB7AB" d="M908.1,299.7h39.4c2.5,0,4.5-2,4.5-4.5s-2-4.5-4.5-4.5h-39.4c-2.5,0-4.5,2-4.5,4.5
			S905.6,299.7,908.1,299.7z"/>
	</g>
	<g>
		<path fill="#FFB7AB" d="M868.7,280h39.4c2.5,0,4.5-2,4.5-4.5c0-2.5-2-4.5-4.5-4.5h-39.4c-2.5,0-4.5,2-4.5,4.5
			C864.2,278,866.1,280,868.7,280z"/>
	</g>
	<g>
		<path fill="#FFB7AB" d="M911.6,260.3H951c2.5,0,4.5-2,4.5-4.5c0-2.5-2-4.5-4.5-4.5h-39.4c-2.5,0-4.5,2-4.5,4.5
			C907.2,258.3,909.1,260.3,911.6,260.3z"/>
	</g>
	<g>
		<path fill="#FFB7AB" d="M748.7,324.8h39.4c2.5,0,4.5-2,4.5-4.5c0-2.5-2-4.5-4.5-4.5h-39.4c-2.5,0-4.5,2-4.5,4.5
			C744.2,322.8,746.1,324.8,748.7,324.8z"/>
	</g>
	<g>
		<path fill="#FFB7AB" d="M911.6,392.8H951c2.5,0,4.5-2,4.5-4.5s-2-4.5-4.5-4.5h-39.4c-2.5,0-4.5,2-4.5,4.5S909.1,392.8,911.6,392.8
			z"/>
	</g>
	<g>
		<path fill="#FFB7AB" d="M759.4,353.4h39.4c2.5,0,4.5-2,4.5-4.5s-2-4.5-4.5-4.5h-39.4c-2.5,0-4.5,2-4.5,4.5
			S756.9,353.4,759.4,353.4z"/>
	</g>
	<g>
		<path fill="#FFB7AB" d="M788.1,274.6h39.4c2.5,0,4.5-2,4.5-4.5c0-2.5-2-4.5-4.5-4.5h-39.4c-2.5,0-4.5,2-4.5,4.5
			C783.6,272.7,785.6,274.6,788.1,274.6z"/>
	</g>
	<g>
		<path fill="#FFB7AB" d="M850.7,246h39.4c2.5,0,4.5-2,4.5-4.5c0-2.5-2-4.5-4.5-4.5h-39.4c-2.5,0-4.5,2-4.5,4.5
			C846.3,244,848.2,246,850.7,246z"/>
	</g>
	<g>
		<path fill="#FFB7AB" d="M771.9,251.3h39.4c2.5,0,4.5-2,4.5-4.5c0-2.5-2-4.5-4.5-4.5h-39.4c-2.5,0-4.5,2-4.5,4.5
			C767.5,249.4,769.4,251.3,771.9,251.3z"/>
	</g>
	<g>
		<path fill="#FFB7AB" d="M757.6,299.7H797c2.5,0,4.5-2,4.5-4.5s-2-4.5-4.5-4.5h-39.4c-2.5,0-4.5,2-4.5,4.5S755.1,299.7,757.6,299.7
			z"/>
	</g>
	<g>
		<path fill="#FFB7AB" d="M768.4,226.3h39.4c2.5,0,4.5-2,4.5-4.5c0-2.5-2-4.5-4.5-4.5h-39.4c-2.5,0-4.5,2-4.5,4.5
			C763.9,224.3,765.9,226.3,768.4,226.3z"/>
	</g>
	<g>
		<path fill="#FFB7AB" d="M872.2,226.3h39.4c2.5,0,4.5-2,4.5-4.5c0-2.5-2-4.5-4.5-4.5h-39.4c-2.5,0-4.5,2-4.5,4.5
			C867.8,224.3,869.7,226.3,872.2,226.3z"/>
	</g>
	<g>
		<path fill="#FFB7AB" d="M438.8,289h39.4c2.5,0,4.5-2,4.5-4.5c0-2.5-2-4.5-4.5-4.5h-39.4c-2.5,0-4.5,2-4.5,4.5
			C434.3,287,436.3,289,438.8,289z"/>
	</g>
</g>
<path fill="#FFFFFF" d="M574.1,211.9c0-13.8-11.3-25.1-25.1-25.1h-48.4c-13.8,0-25.1,11.3-25.1,25.1v186.3
	c0,13.8,11.3,25.1,25.1,25.1H549c13.8,0,25.1-11.3,25.1-25.1V211.9z"/>
<polygon fill="#B5DFF3" points="574.1,380.3 574.1,403.6 475.6,403.6 475.6,385.7 "/>
<path fill="#60B1E0" d="M583,398.2c0,18.8-15.2,34-34,34h-48.4c-18.8,0-34-15.2-34-34V211.9c0-18.8,15.2-34,34-34H549
	c18.8,0,34,15.2,34,34V398.2z M565.1,211.9c0-9-7.2-16.1-16.1-16.1h-48.4c-9,0-16.1,7.2-16.1,16.1v186.3c0,9,7.2,16.1,16.1,16.1H549
	c9,0,16.1-7.2,16.1-16.1V211.9z"/>
<path fill="#FFFFFF" d="M595.5,269.6c0-24-19.5-43.3-43.3-43.3h-54.6c-24,0-43.3,19.5-43.3,43.3v70.7c0,24,19.5,43.3,43.3,43.3h54.6
	c24,0,43.3-19.5,43.3-43.3V269.6z"/>
<path fill="#60B1E0" d="M604.4,340.5c0,29-23.5,52.3-52.3,52.3h-54.6c-29,0-52.3-23.5-52.3-52.3v-70.7c0-29,23.5-52.3,52.3-52.3
	h54.6c29,0,52.3,23.5,52.3,52.3V340.5z M586.5,269.6c0-19-15.4-34.4-34.4-34.4h-54.6c-19,0-34.4,15.4-34.4,34.4v70.7
	c0,19,15.4,34.4,34.4,34.4h54.6c19,0,34.4-15.4,34.4-34.4V269.6z"/>
<g>
	<path fill="#60B1E0" d="M572.2,269.6c0-11.1-9-20.1-20.1-20.1h-54.6c-11.1,0-20.1,9-20.1,20.1v70.7c0,11.1,9,20.1,20.1,20.1h54.6
		c11.1,0,20.1-9,20.1-20.1V269.6z"/>
</g>
<g>
	<path fill="#FFB7AB" d="M51.2,369.2c1.6,0,3.2-0.9,3.9-2.5c1.1-2.1,0.4-4.8-2-6.1c-2.9-1.4-5.9-6.8-5.9-13.8s2.9-12,5.6-13.6
		c2.1-1.3,2.7-4.1,1.4-6.1c-1.3-2.1-4.1-2.7-6.1-1.4c-5.9,3.8-9.7,12-9.7,21.3c0,9.9,4.1,18.4,10.7,21.9
		C49.8,369,50.5,369.2,51.2,369.2z"/>
</g>
<g>
	<path fill="#FFB7AB" d="M70.9,446.2c1.6,0,3.2-0.9,3.9-2.5c1.1-2.1,0.4-4.8-2-6.1c-2.9-1.4-5.9-6.8-5.9-13.8c0-7,2.9-12,5.6-13.6
		c2.1-1.3,2.7-4.1,1.4-6.1c-1.3-2.1-4.1-2.7-6.1-1.4c-5.9,3.8-9.7,12-9.7,21.3c0,9.9,4.1,18.4,10.7,21.9
		C69.5,446,70.2,446.2,70.9,446.2z"/>
</g>
<g>
	<path fill="#FFB7AB" d="M40.5,288.6c1.6,0,3.2-0.9,3.9-2.5c1.1-2.1,0.4-4.8-2-6.1c-2.9-1.4-5.9-6.8-5.9-13.8s2.9-12,5.6-13.6
		c2.1-1.3,2.7-4.1,1.4-6.1c-1.3-2.1-4.1-2.7-6.1-1.4c-5.9,3.8-9.7,12-9.7,21.3c0,9.9,4.1,18.4,10.7,21.9
		C39,288.4,39.8,288.6,40.5,288.6z"/>
</g>
<g>
	<path fill="#FFB7AB" d="M53,209.8c1.6,0,3.2-0.9,3.9-2.5c1.1-2.1,0.4-4.8-2-6.1c-2.9-1.4-5.9-6.8-5.9-13.8c0-7,2.9-12,5.6-13.6
		c2.1-1.3,2.7-4.1,1.4-6.1c-1.3-2.1-4.1-2.7-6.1-1.4c-5.9,3.8-9.7,12-9.7,21.3c0,9.9,4.1,18.4,10.7,21.9
		C51.6,209.6,52.3,209.8,53,209.8z"/>
</g>
</svg>
