<?xml version="1.0" encoding="utf-8"?>
<!-- Generator: Adobe Illustrator 17.1.0, SVG Export Plug-In . SVG Version: 6.00 Build 0)  -->
<!DOCTYPE svg PUBLIC "-//W3C//DTD SVG 1.1//EN" "http://www.w3.org/Graphics/SVG/1.1/DTD/svg11.dtd">
<svg version="1.1" id="Layer_1" xmlns="http://www.w3.org/2000/svg" xmlns:xlink="http://www.w3.org/1999/xlink" x="0px" y="0px"
	 viewBox="0 0 216 216" enable-background="new 0 0 216 216" xml:space="preserve">
<path fill="#FFFFFF" d="M216,41c-8,3.6-16.5,5.9-25.4,7c9.2-5.5,16.2-14.1,19.5-24.5c-8.6,5.1-18.1,8.8-28.2,10.7
	c-8.1-8.6-19.6-14-32.3-14c-24.5,0-44.3,19.8-44.3,44.3c0,3.5,0.4,6.9,1.2,10.1C69.5,72.8,36.9,55.1,15,28.4c-3.8,6.6-6,14.1-6,22.3
	C9,66,16.8,79.6,28.8,87.5c-7.3-0.2-14.1-2.2-20.1-5.5c0,0.2,0,0.4,0,0.6c0,21.5,15.2,39.3,35.6,43.5c-3.7,1-7.7,1.6-11.7,1.6
	c-2.8,0-5.6-0.3-8.4-0.8c5.6,17.6,22,30.4,41.4,30.8c-15.2,11.9-34.3,19-55.1,19c-3.6,0-7.1-0.2-10.6-0.6
	c19.6,12.6,42.9,19.9,67.9,19.9c81.5,0,126.1-67.5,126.1-126.1c0-1.9-0.1-3.9-0.2-5.8C202.6,57.7,210.1,49.9,216,41z"/>
</svg>
